<?xml version="1.0" encoding="UTF-8"?>
<svg id="Vrstva_1" xmlns="http://www.w3.org/2000/svg" version="1.1" viewBox="0 0 1728 1728">
  <!-- Generator: Adobe Illustrator 29.2.1, SVG Export Plug-In . SVG Version: 2.1.0 Build 116)  -->
  <defs>
    <style>
      .st0 {
        fill: #eb6739;
      }
    </style>
  </defs>
  <path class="st0" d="M666.7,488c-8-7.6-20.7-7.3-28.3.7l-147.7,155.3-60.8-64.6c-7.6-8-20.2-8.4-28.3-.9-8,7.6-8.4,20.2-.9,28.3l75.3,80c.1.1.3.2.4.4.1.1.3.3.4.4.1.1.3.2.4.3.2.2.5.4.7.6.3.2.6.4.8.6.3.2.5.4.8.6.3.2.6.4.9.6.3.2.5.3.8.4.3.2.7.3,1,.5.3.1.5.2.8.3.4.1.7.3,1.1.4.2,0,.5.2.7.2.4.1.8.2,1.2.3.2,0,.4.1.7.2.5,0,.9.1,1.4.2.2,0,.4,0,.5,0,.6,0,1.3,0,1.9,0s0,0,0,0,0,0,0,0c.6,0,1.3,0,1.9,0,.2,0,.4,0,.5,0,.5,0,.9-.1,1.4-.2.2,0,.4-.1.7-.2.4,0,.8-.2,1.2-.3.2,0,.5-.2.7-.2.4-.1.7-.3,1.1-.4.3-.1.5-.2.8-.3.3-.2.7-.3,1-.5.3-.1.5-.3.8-.4.3-.2.6-.4.9-.6.3-.2.5-.4.8-.5.3-.2.6-.4.9-.7.2-.2.5-.4.7-.6.1-.1.3-.2.4-.3.1-.1.3-.3.4-.4.1-.1.3-.2.4-.4l162.2-170.6c7.6-8,7.3-20.7-.7-28.3Z"/>
  <path d="M1507.6,970.5c-3.1-20.8-11.9-39.9-24.9-53.7-14.9-15.9-34.2-24.3-55.8-24.3s-28.9,4.1-40.9,11.2v-2.5c0-44.6-36.3-80.9-80.9-80.9s-35.5,6.2-49.2,16.7c-14-27.6-44.3-46.7-79.4-46.7s-33.9,4.8-47.7,13v-64.7h61.7c91.3,0,165.6-74.3,165.6-165.6s-74.3-165.6-165.6-165.6h-412.9c-11.7-18.2-25.5-35.3-41.1-50.9-57.8-57.8-134.7-89.7-216.5-89.7s-158.7,31.8-216.5,89.7c-57.8,57.8-89.7,134.7-89.7,216.5s31.8,158.7,89.7,216.5c57.8,57.8,134.7,89.7,216.5,89.7s158.7-31.8,216.5-89.7c15.7-15.7,29.4-32.7,41.1-50.9h189.4v268.6c-8-1.3-19.8-2.4-33.3-.6-22.4,3-53.6,14.6-74.9,52.8-15.1,26.9-29.5,56.3-33,88.6-3.3,30.3,3,61.1,20.1,97.1,33.1,69.8,182.4,205,188.8,210.7,3.8,3.5,8.6,5.2,13.4,5.2s10.9-2.2,14.9-6.6c7.4-8.2,6.8-20.8-1.5-28.2-41.6-37.5-154.8-146.2-179.4-198.1-28.3-59.7-19.7-92.9,11.7-149.1,10.4-18.6,25.2-29.6,44-32.5,15.2-2.4,27.7,1.3,27.8,1.3h-.1s1.6-5.3,1.6-5.3v87.9c0,11,9,20,20,20s20-9,20-20v-491.8c0-22.6,18.4-40.9,40.9-40.9s40.9,18.4,40.9,40.9v365.1c0,11,9,20,20,20s20-9,20-20v-132.5c0-22.6,21.4-40.9,47.7-40.9s47.7,18.4,47.7,40.9v132.5c0,11,9,20,20,20s20-9,20-20v-102.5c0-22.6,18.4-40.9,40.9-40.9s40.9,18.4,40.9,40.9v113.4c0,11,9,20,20,20s20-9,20-20v-41.2c0-22.6,18.4-40.9,40.9-40.9s38.2,23.6,41.2,43.9c15.8,106.3-1.2,218.4-18.2,293.8-18.6,82.3-41.3,140-41.5,140.6-4.1,10.3.9,21.9,11.2,26,2.4,1,4.9,1.4,7.4,1.4,8,0,15.5-4.8,18.6-12.6,1-2.4,23.9-60.6,43.2-145.8,17.9-78.9,35.6-196.6,19-309.2ZM519.9,839.2c-146.8,0-266.1-119.4-266.1-266.1s119.4-266.1,266.1-266.1,266.1,119.4,266.1,266.1-119.4,266.1-266.1,266.1ZM1047.8,557.7c-44.6,0-80.9,36.3-80.9,80.9v60h-167.6c17.5-39,26.8-81.5,26.8-125.6s-9.2-86.6-26.8-125.6h391.2c69.2,0,125.6,56.3,125.6,125.6s-56.3,125.6-125.6,125.6h-61.7v-60c0-44.6-36.3-80.9-80.9-80.9Z"/>
</svg>