<?xml version="1.0" encoding="UTF-8"?>
<svg id="Vrstva_1" xmlns="http://www.w3.org/2000/svg" version="1.1" viewBox="0 0 1728 1728">
  <!-- Generator: Adobe Illustrator 29.2.1, SVG Export Plug-In . SVG Version: 2.1.0 Build 116)  -->
  <defs>
    <style>
      .st0 {
        fill: #eb6739;
      }
    </style>
  </defs>
  <path d="M735.4,868.9l65-4.8c2.1,0,4.2.5,5.9,1.7l123.8,73c.4.3.8.6,1.2,1l97.3,79.3c7.1,6.7,117.5,107,107.8,105.4l-180.9-16.3c-2-.3-20.8-15.3-22.3-16.8l-204.6-205.6c-6.1-6.1-1.9-16.6,6.7-16.9Z"/>
  <g>
    <path d="M1333.4,1184.1l-212.2-220.2c-.6-.7-1.3-1.3-2-1.8l-135.9-107c-.2-.2-.5-.3-.7-.5l-17.3,37.2,128.1,100.8,200.4,207.9-57.2,91-315.9,2c4.4-16.9,6.5-34.6,5.8-52.9-1.7-48.9-22.4-94.3-58.3-127.6-29.5-27.4-66.3-44.1-105.7-48.2l-94.1-212.8s0,0,0,0l-15.7-35.5,163.4-10.5,38.2,21.7-30.8-61.8c-1.3-.2-2.6-.2-4-.2l-197.9,12.7c-6.5.4-12.4,4-15.8,9.6-3.4,5.6-3.8,12.5-1.2,18.5l12,27-185.7-34.2,6.9-65.9c1.1-11-6.8-20.8-17.8-22-11-1.1-20.8,6.8-22,17.8l-8.8,84.2c-1.1,10.4,6,19.8,16.3,21.7l230.8,42.5,83,187.7c-42.1,5.5-80.6,25.3-109.9,56.8-33.4,35.8-50.8,82.5-49,131.4,3.5,98.8,85,176.8,183.1,176.8s4.4,0,6.6-.1c67.4-2.4,125.2-41.1,155-96.7l342.9-2.2c6.8,0,13.2-3.6,16.8-9.4l71.4-113.5c4.9-7.8,3.9-17.9-2.5-24.5ZM848.2,1344.8c-26.1,28-61.5,44.2-99.8,45.6-1.7,0-3.5,0-5.2,0-76.7,0-140.4-61-143.1-138.2-1.4-38.3,12.2-74.7,38.3-102.8s61.5-44.2,99.8-45.6c1.8,0,3.5,0,5.2,0,36.3,0,70.8,13.5,97.5,38.4,28,26.1,44.2,61.5,45.6,99.8s-12.2,74.7-38.3,102.8Z"/>
    <path class="st0" d="M927.2,993.7c-7.6,0-14.5-4.3-17.9-11.1l-179.2-359.3c-18.3-32.5-27.9-69.5-27.9-107,0-58.4,22.8-113.4,64.1-154.7,41.3-41.3,96.3-64.1,154.7-64.1s113.4,22.8,154.7,64.1c41.3,41.3,64.1,96.3,64.1,154.7s-5.3,55.7-15.9,81.9c-.2.5-.4,1-.6,1.5-2.4,5.9-5.1,11.7-8.1,17.4l-169.8,365c-3.2,7-10.2,11.5-17.9,11.6,0,0-.2,0-.3,0ZM920.9,337.6c-98.6,0-178.8,80.2-178.8,178.8s8,61.1,23,87.8c.2.3.3.6.5.9l160.9,322.6,152.5-327.8c.1-.3.3-.6.4-.8,2.5-4.8,4.8-9.8,6.9-14.9,8.8-21.6,13.3-44.5,13.3-67.8,0-98.6-80.2-178.8-178.8-178.8Z"/>
  </g>
  <path class="st0" d="M920.9,619.6c-56.9,0-103.3-46.3-103.3-103.3s46.3-103.3,103.3-103.3,103.3,46.3,103.3,103.3-46.3,103.3-103.3,103.3ZM920.9,453.1c-34.9,0-63.3,28.4-63.3,63.3s28.4,63.3,63.3,63.3,63.3-28.4,63.3-63.3-28.4-63.3-63.3-63.3Z"/>
</svg>