<?xml version="1.0" encoding="UTF-8"?>
<svg id="Vrstva_1" xmlns="http://www.w3.org/2000/svg" version="1.1" viewBox="0 0 1728 1728">
  <!-- Generator: Adobe Illustrator 29.2.1, SVG Export Plug-In . SVG Version: 2.1.0 Build 116)  -->
  <rect x="607.1" y="849" width="76.5" height="76.5" rx="11.3" ry="11.3"/>
  <path d="M1190.9,534.6H507.6c-36,0-65.4,29.3-65.4,65.4v515.3c0,36,29.3,65.4,65.4,65.4h316.9v-40h-316.9c-14,0-25.4-11.4-25.4-25.4v-446.4h734.1v138.8h40v-207.8c0-36-29.3-65.4-65.4-65.4Z"/>
  <rect x="741.5" y="849" width="76.5" height="76.5" rx="11.3" ry="11.3"/>
  <rect x="878.1" y="849" width="76.5" height="76.5" rx="11.3" ry="11.3"/>
  <rect x="1004.5" y="722.3" width="76.5" height="76.5" rx="11.3" ry="11.3"/>
  <rect x="878.1" y="722.3" width="76.5" height="76.5" rx="11.3" ry="11.3"/>
  <rect x="741.5" y="722.3" width="76.5" height="76.5" rx="11.3" ry="11.3"/>
  <rect x="741.5" y="975.7" width="76.5" height="76.5" rx="11.3" ry="11.3"/>
  <rect x="607.1" y="975.7" width="76.5" height="76.5" rx="11.3" ry="11.3"/>
  <path d="M1265.8,1008.5h-296.1l124.5-109.9c8.3-7.3,9.1-20,1.8-28.2-7.3-8.3-20-9.1-28.2-1.8l-164.1,144.9s0,0-.1.1c-.3.2-.5.5-.8.7-.2.2-.5.5-.7.7,0,0,0,0-.1.1-.1.2-.3.3-.4.5-.3.3-.5.6-.7.9-.2.2-.3.5-.5.7-.2.3-.4.6-.6,1-.2.3-.3.5-.4.8-.2.3-.3.6-.5.9-.1.3-.3.6-.4.9-.1.3-.2.6-.3.9-.1.3-.2.7-.3,1,0,.3-.2.6-.2.8,0,.3-.2.7-.2,1,0,.3-.1.6-.2.8,0,.3,0,.7-.1,1,0,.3,0,.6,0,.9,0,.3,0,.6,0,1,0,.3,0,.6,0,1,0,.3,0,.6,0,.9,0,.3,0,.7.1,1,0,.3,0,.6.2.8,0,.4.1.7.2,1,0,.3.2.6.2.8,0,.3.2.7.3,1,.1.3.2.6.3.9.1.3.2.6.4.9.1.3.3.6.5.9.1.3.3.5.4.8.2.3.4.6.6,1,.2.2.3.5.5.7.2.3.5.6.7.9.1.2.3.4.4.5,0,0,0,0,.1.1.3.3.6.6.9.9.2.2.4.4.6.6,0,0,0,0,0,0l164.1,144.9c3.8,3.4,8.5,5,13.2,5s11-2.3,15-6.8c7.3-8.3,6.5-20.9-1.8-28.2l-124.5-109.9h296.1c11,0,20-9,20-20s-9-20-20-20Z"/>
</svg>