<?xml version="1.0" encoding="UTF-8"?>
<svg id="Vrstva_1" xmlns="http://www.w3.org/2000/svg" version="1.1" viewBox="0 0 1728 1728">
  <!-- Generator: Adobe Illustrator 29.2.1, SVG Export Plug-In . SVG Version: 2.1.0 Build 116)  -->
  <rect x="615.8" y="849" width="76.5" height="76.5" rx="11.3" ry="11.3"/>
  <path d="M1199.6,534.6h-683.3c-36,0-65.4,29.3-65.4,65.4v515.3c0,36,29.3,65.4,65.4,65.4h316.9v-40h-316.9c-14,0-25.4-11.4-25.4-25.4v-446.4h734.1v138.8h40v-207.8c0-36-29.3-65.4-65.4-65.4Z"/>
  <rect x="750.2" y="849" width="76.5" height="76.5" rx="11.3" ry="11.3"/>
  <rect x="886.8" y="849" width="76.5" height="76.5" rx="11.3" ry="11.3"/>
  <rect x="1013.1" y="722.3" width="76.5" height="76.5" rx="11.3" ry="11.3"/>
  <rect x="886.8" y="722.3" width="76.5" height="76.5" rx="11.3" ry="11.3"/>
  <rect x="750.2" y="722.3" width="76.5" height="76.5" rx="11.3" ry="11.3"/>
  <rect x="750.2" y="975.7" width="76.5" height="76.5" rx="11.3" ry="11.3"/>
  <rect x="615.8" y="975.7" width="76.5" height="76.5" rx="11.3" ry="11.3"/>
  <path d="M1273.7,1039.6c.2-.3.4-.6.6-1,.2-.3.3-.5.4-.8.2-.3.3-.6.5-.9.1-.3.3-.6.4-.9.1-.3.2-.6.3-.9.1-.3.2-.7.3-1,0-.3.2-.6.2-.8,0-.3.2-.7.2-1,0-.3.1-.6.2-.8,0-.3,0-.7.1-1,0-.3,0-.6,0-.9,0-.3,0-.6,0-1,0-.3,0-.6,0-1,0-.3,0-.6,0-.9,0-.3,0-.7-.1-1,0-.3,0-.6-.2-.8,0-.4-.1-.7-.2-1,0-.3-.2-.6-.2-.8,0-.3-.2-.7-.3-1-.1-.3-.2-.6-.3-.9-.1-.3-.2-.6-.4-.9-.1-.3-.3-.6-.5-.9-.1-.3-.3-.5-.4-.8-.2-.3-.4-.6-.6-1-.2-.2-.3-.5-.5-.7-.2-.3-.5-.6-.7-.9-.1-.2-.3-.4-.4-.5,0,0,0,0-.1-.1-.2-.3-.5-.5-.7-.7-.2-.3-.5-.5-.8-.7,0,0,0,0-.1-.1l-164.1-144.9c-8.3-7.3-20.9-6.5-28.2,1.8-7.3,8.3-6.5,20.9,1.8,28.2l124.5,109.9h-296.1c-11,0-20,9-20,20s9,20,20,20h296.1l-124.5,109.9c-8.3,7.3-9.1,20-1.8,28.2,4,4.5,9.5,6.8,15,6.8s9.4-1.7,13.2-5l164.1-144.9s0,0,0,0c.2-.2.4-.4.6-.6.3-.3.6-.6.9-.9,0,0,0,0,.1-.1.1-.2.3-.3.4-.5.3-.3.5-.6.7-.9.2-.2.3-.5.5-.7Z"/>
</svg>