<?xml version="1.0" encoding="UTF-8"?>
<svg id="Vrstva_1" xmlns="http://www.w3.org/2000/svg" version="1.1" viewBox="0 0 1728 1728">
  <!-- Generator: Adobe Illustrator 29.2.1, SVG Export Plug-In . SVG Version: 2.1.0 Build 116)  -->
  <defs>
    <style>
      .st0 {
        fill: #eb6739;
      }
    </style>
  </defs>
  <path class="st0" d="M1298.6,924.5c-8.1-7.5-20.8-7-28.3,1.1l-230.5,248.5-93.1-109.7c-7.1-8.4-19.8-9.5-28.2-2.3s-9.5,19.8-2.3,28.2l107.7,126.9s0,0,0,0c.3.4.7.8,1.1,1.1.1.1.3.3.4.4,0,0,0,0,0,0,.5.5,1,.9,1.5,1.3.2.1.4.3.6.4.4.3.7.5,1.1.8.2.1.5.3.7.4.4.2.8.4,1.1.6.2.1.5.2.7.3.4.2.8.3,1.2.5.2,0,.5.2.7.2.4.1.9.2,1.3.4.2,0,.4.1.6.1.5,0,1,.2,1.4.2.2,0,.4,0,.5,0,.7,0,1.3.1,2,.1s0,0,0,0,0,0,0,0c.6,0,1.3,0,1.9,0,.2,0,.3,0,.5,0,.5,0,.9-.1,1.4-.2.2,0,.4,0,.6-.1.4,0,.8-.2,1.2-.3.2,0,.4-.1.6-.2.4-.1.8-.3,1.2-.4.2,0,.4-.2.7-.3.4-.2.7-.4,1.1-.5.2-.1.4-.2.6-.3.4-.2.8-.5,1.2-.8.2-.1.4-.2.5-.3.5-.3.9-.7,1.4-1,0,0,0,0,0,0,.2-.2.4-.4.7-.6.3-.3.6-.6.9-.9,0,0,0,0,.1,0l245.8-265c7.5-8.1,7-20.8-1.1-28.3Z"/>
  <rect x="587.9" y="818.3" width="76.5" height="76.5" rx="11.3" ry="11.3"/>
  <path d="M1171.7,503.9H488.4c-36,0-65.4,29.3-65.4,65.4v515.3c0,36,29.3,65.4,65.4,65.4h316.9v-40h-316.9c-14,0-25.4-11.4-25.4-25.4v-446.4h734.1v138.8h40v-207.8c0-36-29.3-65.4-65.4-65.4Z"/>
  <rect x="722.3" y="818.3" width="76.5" height="76.5" rx="11.3" ry="11.3"/>
  <rect x="858.9" y="818.3" width="76.5" height="76.5" rx="11.3" ry="11.3"/>
  <rect x="985.3" y="691.6" width="76.5" height="76.5" rx="11.3" ry="11.3"/>
  <rect x="858.9" y="691.6" width="76.5" height="76.5" rx="11.3" ry="11.3"/>
  <rect x="722.3" y="691.6" width="76.5" height="76.5" rx="11.3" ry="11.3"/>
  <rect x="722.3" y="944.9" width="76.5" height="76.5" rx="11.3" ry="11.3"/>
  <rect x="587.9" y="944.9" width="76.5" height="76.5" rx="11.3" ry="11.3"/>
</svg>