<svg width="5" height="5" viewBox="0 0 5 5" fill="none" xmlns="http://www.w3.org/2000/svg">
<path d="M3.60163 0.893555C3.44936 0.893555 3.32617 1.02432 3.32617 1.18596C3.32617 1.3476 3.44936 1.47837 3.60163 1.47837C3.7539 1.47837 3.87709 1.3476 3.87709 1.18596C3.87709 1.02432 3.7539 0.893555 3.60163 0.893555Z" fill="#D9D9D9"/>
<path d="M2.37485 1.26953C1.73496 1.26953 1.21484 1.82166 1.21484 2.50092C1.21484 3.18017 1.73496 3.7323 2.37485 3.7323C3.01474 3.7323 3.53486 3.18017 3.53486 2.50092C3.53486 1.82166 3.01474 1.26953 2.37485 1.26953ZM2.37485 3.28915C1.96594 3.28915 1.63231 2.93499 1.63231 2.50092C1.63231 2.06684 1.96594 1.71268 2.37485 1.71268C2.78376 1.71268 3.1174 2.06684 3.1174 2.50092C3.1174 2.93499 2.78376 3.28915 2.37485 3.28915Z" fill="#D9D9D9"/>
<path d="M3.29525 5H1.41494C0.634754 5 0 4.32619 0 3.498V1.502C0 0.67381 0.634754 0 1.41494 0H3.29525C4.07543 0 4.71018 0.67381 4.71018 1.502V3.498C4.71018 4.32619 4.07543 5 3.29525 5ZM1.41494 0.472212C0.879417 0.472212 0.44313 0.935343 0.44313 1.50381V3.49982C0.44313 4.06829 0.879417 4.53142 1.41494 4.53142H3.29525C3.83077 4.53142 4.26705 4.06829 4.26705 3.49982V1.50381C4.26705 0.935343 3.83077 0.472212 3.29525 0.472212H1.41494Z" fill="#D9D9D9"/>
</svg>
