<svg width="11" height="12" viewBox="0 0 11 12" fill="none" xmlns="http://www.w3.org/2000/svg">
<path d="M10.8874 5.87842C10.8874 8.765 8.64306 11.1264 5.80637 11.3098H5.09285C3.30385 11.1942 1.75084 10.2124 0.847901 8.77897C0.318472 7.93904 0.012207 6.94455 0.012207 5.87842H10.8874Z" fill="#DC0102"/>
<path d="M10.8874 5.8784H0.012207C0.012207 4.81177 0.318472 3.81689 0.847774 2.97747C1.81085 1.44966 3.51192 0.434586 5.44948 0.434586C8.4525 0.434586 10.8873 2.87205 10.8873 5.8784H10.8874Z" fill="white"/>
<path d="M4.97309 5.87841L0.847901 8.77896C0.318472 7.93903 0.012207 6.94454 0.012207 5.87841C0.012207 4.81228 0.318472 3.81689 0.847774 2.97748L4.97296 5.87841H4.97309Z" fill="#1D296D"/>
</svg>
