<svg width="58" height="21" viewBox="0 0 58 21" fill="none" xmlns="http://www.w3.org/2000/svg">
<path d="M27.9828 8.10554C27.939 8.73733 27.8951 9.36912 27.8349 10.0009C27.7764 10.693 27.718 11.3978 27.6888 12.1044C27.6742 12.5299 27.7911 13.1763 27.5847 13.5652C27.5477 13.6322 27.4976 13.6912 27.4375 13.7387C27.3775 13.7861 27.3085 13.8212 27.2348 13.8417C27.161 13.8623 27.0839 13.868 27.0079 13.8584C26.9319 13.8489 26.8586 13.8243 26.7922 13.7862C26.4544 13.6036 26.3357 13.1672 26.2335 12.8294C26.0399 12.2146 25.8826 11.5891 25.7624 10.9559C25.6601 10.4556 25.4976 9.94065 25.3972 9.44033C25.3972 9.52981 25.3826 9.62293 25.3826 9.7051C25.368 10.0447 25.368 10.3825 25.3826 10.7203C25.3972 11.3229 25.4702 11.9109 25.5287 12.4988C25.5597 12.7636 25.662 13.2292 25.3972 13.3954C25.3812 13.4218 25.36 13.4446 25.3349 13.4625C25.3098 13.4804 25.2813 13.493 25.2511 13.4995C24.7508 13.6017 24.5883 13.3808 24.5006 12.9097C24.394 12.2025 24.3391 11.4885 24.3363 10.7733C24.3217 10.0429 24.3363 9.30338 24.3655 8.58212C24.3674 7.91879 24.407 7.25611 24.4842 6.59728C24.5426 6.25948 24.749 5.86689 25.1598 5.90706C25.5707 5.94723 25.6893 6.48042 25.8062 6.80362C26.0226 7.44589 26.1994 8.10082 26.3357 8.76472C26.4234 9.10253 26.4983 9.45677 26.5859 9.80918C26.6151 9.91144 26.6297 10.0721 26.6736 10.2346L26.7484 9.54441L26.7922 8.52917C26.7919 7.8411 26.8358 7.15372 26.9237 6.47129C26.9675 6.08966 27.0278 5.48709 27.5117 5.44144C27.8659 5.41222 27.9974 5.6916 28.0266 6.00019C28.1161 6.67762 28.0266 7.42628 27.9828 8.10372" fill="#768078"/>
<path d="M32.4526 13.3533C32.3631 13.8829 31.7459 13.9559 31.3351 13.7058C31.0819 13.5353 30.89 13.2883 30.7873 13.0009C30.7124 12.8183 30.654 12.6047 30.6047 12.3984C30.5463 12.2158 30.5463 11.9126 30.5317 12.2797C30.517 12.6467 30.4148 13.3972 30.0752 13.7204C30.0628 13.7792 30.0318 13.8325 29.9867 13.8723C29.9416 13.9121 29.8849 13.9363 29.825 13.9413C28.8554 13.9851 29.1348 12.8457 29.237 12.2651C29.4288 11.1476 29.531 10.0301 29.6789 8.91256C29.752 8.35381 29.9875 4.73837 31.2967 5.85587C31.7952 6.26672 31.8445 7.1651 31.8993 7.76767C31.987 8.72266 32.0308 9.66304 32.1933 10.6199C32.3248 11.458 32.6041 12.486 32.4581 13.3588M30.4677 10.2072C30.4385 10.3094 30.3363 10.6199 30.3929 10.7075C30.4677 10.8536 30.7307 10.8244 30.8348 10.7221C31.0995 10.4719 30.8494 10.0008 30.57 10.0447C30.5429 10.0452 30.5169 10.0556 30.497 10.0739L30.4677 10.2072Z" fill="#768078"/>
<path d="M40.4797 8.81029C40.2486 9.59553 40.0765 10.3969 39.9648 11.2078C39.8479 11.9565 39.7292 12.7215 39.406 13.4118C39.1705 13.9121 38.6574 13.9705 38.3323 13.5012C38.1497 13.2511 38.1132 12.9279 38.0384 12.6339L37.7736 11.2955C37.4358 9.56077 37.1856 7.81148 36.9811 6.04576C36.9746 6.01397 36.9751 5.98113 36.9827 5.94957C36.9902 5.91801 37.0047 5.88851 37.0249 5.86316C37.0542 5.64222 37.3043 5.64222 37.4504 5.74447C38.157 5.99463 38.3634 7.06831 38.451 7.68549C38.5679 8.4944 38.745 9.25948 38.9203 10.0374C38.9952 9.64111 39.0828 9.17001 39.1029 9.09697C39.2052 8.61309 39.3092 8.11277 39.4261 7.62706C39.5079 7.12442 39.6256 6.6283 39.7785 6.14254C39.8122 6.03195 39.8709 5.9306 39.95 5.84636C40.0292 5.76213 40.1267 5.69727 40.235 5.65683C41.6173 5.21494 40.6166 8.34832 40.4852 8.8176" fill="#768078"/>
<path d="M45.1834 13.0448C45.0227 13.6912 43.6112 14.1404 43.1748 13.6327C42.8662 13.2675 42.91 12.4714 42.8516 12.0313C42.7639 11.3393 42.7037 10.6491 42.6453 9.95703C42.5868 9.26499 42.5576 8.49625 42.5284 7.78229C42.5138 7.3258 42.3458 6.62097 42.5576 6.19369C42.7402 5.81206 43.3373 5.6459 43.7043 5.57651C44.189 5.44644 44.7033 5.48244 45.1651 5.67876C45.1937 5.68822 45.22 5.70384 45.2419 5.72452C45.2639 5.7452 45.281 5.77045 45.2922 5.79848C45.3033 5.8265 45.3082 5.85663 45.3064 5.88674C45.3046 5.91685 45.2963 5.94621 45.282 5.97275C45.2834 6.0198 45.2723 6.06638 45.2498 6.10775C45.2274 6.14912 45.1944 6.18381 45.1542 6.2083C44.831 6.41463 44.4347 6.3562 44.1097 6.5315C43.6842 6.75244 43.8321 7.57596 43.8321 7.99228C43.8468 8.25705 43.8468 8.50721 43.876 8.77197C43.9052 8.95457 43.9198 9.50237 44.0586 9.65392C44.2503 9.86026 44.6064 9.68314 44.8237 9.87487C44.8913 9.94697 44.9358 10.0377 44.9515 10.1353C44.9671 10.233 44.9531 10.333 44.9113 10.4227C44.7506 10.7313 44.4858 10.629 44.2649 10.7605C43.9125 10.9668 44.044 11.9967 44.1773 12.3052C44.3087 12.6431 44.3599 12.6577 44.6776 12.6577C44.8108 12.6468 44.9441 12.6775 45.0592 12.7453C45.1122 12.7749 45.1539 12.8213 45.1777 12.8771C45.2015 12.933 45.2061 12.9952 45.1907 13.0539" fill="#768078"/>
<path d="M49.7704 6.26683C49.5494 6.47316 49.1532 6.53159 48.8884 6.63202C48.3297 6.81462 48.4191 7.30763 48.4027 7.82256C48.3589 8.6899 48.3297 9.57185 48.2858 10.4538C48.242 11.3357 48.2712 12.2323 48.169 13.1143C48.0959 13.673 47.9864 13.9086 47.4039 13.8446C46.6096 13.726 46.6845 13.4174 46.7283 12.6833C46.8013 11.816 46.8598 10.934 46.9328 10.0649C47.0058 9.1957 47.0661 8.3174 47.1537 7.44824C47.1848 7.21268 47.1537 6.86027 47.2414 6.5955C46.8013 6.55168 46.2426 6.47864 46.3284 5.96371C46.3388 5.90539 46.3698 5.85271 46.4157 5.81521C46.4615 5.77771 46.5193 5.75784 46.5786 5.7592C47.5335 5.83224 48.505 5.39401 49.4453 5.53826C49.8288 5.59669 50.1228 5.96371 49.7685 6.26865" fill="#768078"/>
<path d="M54.4119 8.81029C54.1808 9.59553 54.0087 10.3969 53.897 11.2078C53.7783 11.9565 53.6615 12.7215 53.3383 13.4118C53.1027 13.9121 52.5878 13.9705 52.2646 13.5012C52.0729 13.2511 52.0436 12.9279 51.9706 12.6339L51.7058 11.2955C51.368 9.56077 51.1179 7.81148 50.9115 6.04576C50.905 6.01397 50.9055 5.98113 50.9131 5.94957C50.9207 5.91801 50.9351 5.88851 50.9554 5.86316C50.9846 5.64222 51.2366 5.64222 51.3826 5.74447C52.0875 5.99463 52.2956 7.06831 52.3833 7.68549C52.5001 8.4944 52.6773 9.25948 52.8526 10.0374C52.9256 9.64111 53.0151 9.17001 53.0352 9.09697C53.1374 8.61309 53.2415 8.11277 53.3584 7.62706C53.4384 7.12407 53.5562 6.62782 53.7108 6.14254C53.7444 6.03195 53.8031 5.9306 53.8823 5.84636C53.9615 5.76213 54.059 5.69727 54.1673 5.65683C55.5477 5.21494 54.5489 8.34832 54.4174 8.8176" fill="#768078"/>
<path d="M57.8811 13.1178C57.7917 13.5743 57.41 14.133 56.9243 13.6766C56.3966 13.1927 56.455 11.9857 56.4404 11.3393C56.4258 10.6929 56.4551 10.0611 56.4697 9.4275C56.3966 8.79571 56.382 8.1201 56.6157 7.59056C56.6563 7.49297 56.7222 7.40798 56.8066 7.34437C56.891 7.28076 56.9908 7.24085 57.0958 7.22875C57.2008 7.21665 57.3071 7.2328 57.4038 7.27555C57.5004 7.31829 57.5839 7.38607 57.6456 7.47187C57.8811 7.76768 57.8519 8.20227 57.8811 8.56746C57.9104 9.08239 57.9396 9.58271 57.9542 10.0812C57.9834 11.0672 58.071 12.1409 57.8811 13.1251M56.603 6.25942C56.3692 5.93622 56.6322 5.49616 57.0156 5.45051C57.1098 5.4433 57.2044 5.45802 57.292 5.4935C57.3796 5.52899 57.4578 5.58428 57.5204 5.65504C57.583 5.7258 57.6284 5.8101 57.653 5.90134C57.6775 5.99258 57.6806 6.08827 57.662 6.18091C57.5598 6.57714 57.0887 6.51871 56.7801 6.43107C56.7379 6.4163 56.6996 6.39221 56.6679 6.3606C56.6363 6.32899 56.6122 6.29066 56.5975 6.24847" fill="#768078"/>
<path d="M42.9082 4.74751C42.7837 4.73057 42.6613 4.70058 42.543 4.65804C42.4692 4.6383 42.4061 4.59022 42.3674 4.52424C42.3288 4.45826 42.3177 4.3797 42.3367 4.30563C42.3372 4.24098 42.3556 4.17773 42.3898 4.12288C42.424 4.06802 42.4727 4.02368 42.5305 3.99477C42.5883 3.96586 42.653 3.9535 42.7174 3.95905C42.7818 3.96461 42.8434 3.98787 42.8954 4.02625C42.939 4.06423 42.9891 4.09393 43.0433 4.1139C43.6533 4.24916 44.2911 4.17185 44.8511 3.89478C44.9209 3.84854 44.9949 3.80881 45.072 3.77609C45.4244 3.59349 45.7476 4.1139 45.3806 4.32389L45.2473 4.39693C45.0561 4.54673 44.8491 4.6753 44.6301 4.78038C44.0691 4.96564 43.4617 4.95404 42.9082 4.74751Z" fill="#768078"/>
<path d="M10.0679 1.34886e-08C9.7283 1.34886e-08 9.39415 0.0164338 9.06364 0.0493015C9.95072 0.471353 10.6881 1.15378 11.1774 2.00561C11.6667 2.85743 11.8847 3.83817 11.8024 4.81708C11.7201 5.79599 11.3413 6.72655 10.7166 7.48469C10.0919 8.24283 9.25097 8.79253 8.30586 9.06051C9.00736 8.2658 9.36832 7.22717 9.31087 6.1687C9.25343 5.11023 8.78218 4.11676 7.9988 3.40264C7.21542 2.68851 6.1827 2.31097 5.12344 2.35146C4.06419 2.39196 3.06331 2.84724 2.33673 3.61909C0.869578 5.37797 0.0459774 7.58452 0.00186842 9.87456C-0.0422406 12.1646 0.695779 14.4012 2.09412 16.2153C3.49245 18.0294 5.46752 19.3124 7.69334 19.8528C9.91916 20.3931 12.2627 20.1583 14.3371 19.1872C16.4115 18.2162 18.0929 16.5668 19.1036 14.5114C20.1143 12.4561 20.394 10.1175 19.8966 7.88169C19.3991 5.64591 18.1542 3.64656 16.3673 2.21364C14.5804 0.780721 12.3584 -0.0001185 10.0679 1.34886e-08ZM13.3876 12.9754C13.0698 12.5207 11.4958 12.8056 11.2621 11.836C11.2305 11.705 11.2261 11.5689 11.2493 11.4361C10.5372 11.5359 9.83238 11.6577 9.13486 11.8013C9.60048 12.5481 9.63152 13.8738 9.20972 14.4855C8.6948 13.8884 6.50727 14.5111 6.04165 13.1708C5.98041 13 5.95433 12.8187 5.96496 12.6376C4.51675 13.1005 3.10298 13.6649 1.73416 14.3266C3.10776 13.3931 4.59367 12.6367 6.15668 12.0752C6.25209 11.9438 6.37723 11.8368 6.52188 11.763C7.06967 11.5292 7.83293 11.9876 8.57611 12.9718C7.50791 11.1458 6.60588 11.553 6.21329 11.6936C6.3893 11.5174 6.61843 11.404 6.86529 11.371C7.11215 11.338 7.36301 11.3872 7.57912 11.511C8.01736 11.2353 8.38255 11.217 8.67471 11.3631C9.62029 11.1574 10.5797 11.0213 11.5452 10.9559C11.5931 10.9234 11.6445 10.8964 11.6985 10.8755C12.0966 10.7495 12.5987 11.122 13.0498 11.8634C12.4289 10.5158 11.7716 10.7331 11.4867 10.8025C11.6218 10.6911 11.79 10.6275 11.965 10.6215C12.14 10.6156 12.3121 10.6677 12.4545 10.7696C12.9037 10.545 13.2214 10.6546 13.4223 10.923C14.1616 10.942 14.8993 11.003 15.6317 11.1056C14.9396 11.1056 14.2494 11.1348 13.5665 11.1805C13.7856 11.7411 13.7053 12.5883 13.3839 12.9626M3.04156 12.1391C7.61747 9.3618 10.6504 8.41229 12.7795 8.34838C14.0467 8.26118 15.2395 7.71829 16.1375 6.82003C16.3 7.38426 17.4029 7.64173 17.8813 7.78415C17.9297 7.78222 17.9769 7.7996 18.0126 7.83247C18.0482 7.86534 18.0693 7.91102 18.0712 7.95945C18.0731 8.00787 18.0558 8.05509 18.0229 8.0907C17.99 8.12632 17.9443 8.14741 17.8959 8.14935C17.4705 8.31186 16.2982 8.43055 15.7193 8.46889C15.6696 8.47768 15.6239 8.50212 15.589 8.53866C15.5541 8.57519 15.5317 8.62192 15.5252 8.67204C15.5187 8.72215 15.5283 8.77304 15.5527 8.8173C15.5772 8.86155 15.615 8.89686 15.6609 8.91809C17.4248 9.77082 18.2173 11.248 19.5959 11.0362C17.7097 12.3436 14.5818 6.90403 3.04156 12.1391Z" fill="#768078"/>
</svg>
