<svg width="42" height="42" viewBox="0 0 42 42" fill="none" xmlns="http://www.w3.org/2000/svg">
<path d="M40.0224 16.6776H40.2028C40.3187 16.6776 40.4089 16.6583 40.4089 16.5295C40.4089 16.4135 40.2865 16.3942 40.1963 16.3942H40.0224V16.6776ZM39.8098 16.2331H40.2092C40.4733 16.2331 40.6279 16.3169 40.6279 16.5488C40.6279 16.742 40.5055 16.8193 40.3509 16.8322L40.6344 17.296H40.4153L40.1577 16.8387H40.0288V17.296H39.8098V16.2331ZM40.1899 17.515C40.5828 17.515 40.9049 17.1994 40.9049 16.7678C40.9049 16.3362 40.5828 16.0206 40.1899 16.0206C39.7905 16.0206 39.4748 16.3362 39.4748 16.7678C39.4684 17.1994 39.7905 17.515 40.1899 17.515ZM40.1899 15.8209C40.7052 15.8209 41.1626 16.1945 41.1626 16.7678C41.1626 17.3475 40.7052 17.7212 40.1899 17.7212C39.6745 17.7212 39.2107 17.3475 39.2107 16.7678C39.2107 16.188 39.6745 15.8209 40.1899 15.8209Z" fill="#A5A5A6"/>
<path d="M0.99202 16.8773H8.09079V19.8019H6.27423V25.9666H2.82147V19.8019H0.99202V16.8773Z" fill="#A5A5A6"/>
<path d="M16.7807 25.9666H13.3408V22.8681H12.2457V25.9666H8.79939V16.8773H12.2457V19.9178H13.3408V16.8773H16.7807V25.9666Z" fill="#A5A5A6"/>
<path d="M21.8181 26.2758C24.6138 26.2629 25.8055 24.3304 25.812 22.8681C25.8184 21.4767 25.812 16.8838 25.812 16.8838H22.3721V22.5267C22.3721 22.8746 22.1659 23.0871 21.8181 23.0871C21.4767 23.0871 21.2641 22.8746 21.2641 22.5267V16.8773H17.8178C17.8178 16.8773 17.8113 21.4767 17.8178 22.8617C17.8307 24.3304 19.0224 26.2887 21.8181 26.2758Z" fill="#A5A5A6"/>
<path d="M35.4488 25.1678H35.7322L35.9319 24.1951H35.9383L36.3184 25.1678H36.6212L36.9175 23.7828H36.6405L36.4408 24.7684H36.4343L36.0607 23.7828H35.7451L35.4488 25.1678ZM34.154 25.1678H35.2233L35.2748 24.9101H34.5083L34.5791 24.5687H35.2748L35.3264 24.3304H34.6307L34.6951 24.0341H35.4488L35.5003 23.7764H34.4439L34.154 25.1678ZM33.0782 24.9101H33.3166C33.6258 24.9101 33.7997 24.6654 33.7997 24.3755C33.7997 24.1758 33.7159 24.0405 33.4969 24.0405H33.265L33.0782 24.9101ZM32.7175 25.1678H33.2972C33.8319 25.1678 34.096 24.8071 34.096 24.3239C34.096 23.9825 33.8963 23.7828 33.5098 23.7828H33.0074L32.7175 25.1678ZM31.4227 25.1678H32.492L32.5436 24.9101H31.777L31.8478 24.5687H32.5436L32.5951 24.3304H31.8994L31.9638 24.0341H32.7175L32.769 23.7764H31.7126L31.4227 25.1678ZM31.5644 23.7764H31.2616L30.8365 24.7877H30.8301L30.7978 23.7764H30.508L30.0699 24.7942H30.0635L30.0442 23.7764H29.7414L29.838 25.1614H30.1472L30.5788 24.1693H30.5853L30.6175 25.1614H30.9202L31.5644 23.7764ZM28.35 24.704C28.35 25.039 28.5432 25.1936 28.9233 25.1936C29.1874 25.1936 29.4902 25.0647 29.4902 24.7362C29.4902 24.485 29.3356 24.4012 29.1166 24.3497C29.0199 24.3239 28.788 24.2917 28.788 24.1565C28.788 24.0276 28.9169 23.9825 29.0328 23.9825C29.1745 23.9825 29.2905 24.0405 29.284 24.1951H29.5739C29.5739 23.873 29.3356 23.7506 29.0521 23.7506C28.7816 23.7506 28.5046 23.873 28.5046 24.1822C28.5046 24.4206 28.6785 24.4979 28.8524 24.5558C29.0264 24.6074 29.2067 24.6331 29.2067 24.7684C29.2067 24.9037 29.065 24.9617 28.9426 24.9617C28.7687 24.9617 28.6334 24.9037 28.6463 24.704H28.35ZM26.8555 16.8773H30.2825V22.9841H32.2408V16.8773H38.2767V19.3058H35.6742V20.227H37.742V21.9856H35.6742V22.9841H38.2767V25.9666H26.8555V16.8773Z" fill="#A5A5A6"/>
</svg>
