<?xml version="1.0" encoding="UTF-8"?>
<svg id="Vrstva_1" xmlns="http://www.w3.org/2000/svg" version="1.1" viewBox="0 0 1728 1728">
  <!-- Generator: Adobe Illustrator 29.2.1, SVG Export Plug-In . SVG Version: 2.1.0 Build 116)  -->
  <rect x="607.1" y="849" width="76.5" height="76.5" rx="11.3" ry="11.3"/>
  <path d="M1190.9,524.6H507.6c-41.6,0-75.4,33.7-75.4,75.4v515.3c0,41.6,33.7,75.4,75.4,75.4h305.6c6.3,0,11.3-5.1,11.3-11.3v-37.3c0-6.3-5.1-11.3-11.3-11.3h-305.6c-8.5,0-15.4-6.9-15.4-15.4v-446.4h714.1v127.5c0,6.3,5.1,11.3,11.3,11.3h37.3c6.3,0,11.3-5.1,11.3-11.3v-196.5c0-41.6-33.7-75.4-75.4-75.4Z"/>
  <rect x="741.5" y="849" width="76.5" height="76.5" rx="11.3" ry="11.3"/>
  <rect x="878.1" y="849" width="76.5" height="76.5" rx="11.3" ry="11.3"/>
  <rect x="1004.5" y="722.3" width="76.5" height="76.5" rx="11.3" ry="11.3"/>
  <rect x="878.1" y="722.3" width="76.5" height="76.5" rx="11.3" ry="11.3"/>
  <rect x="741.5" y="722.3" width="76.5" height="76.5" rx="11.3" ry="11.3"/>
  <rect x="741.5" y="975.7" width="76.5" height="76.5" rx="11.3" ry="11.3"/>
  <rect x="607.1" y="975.7" width="76.5" height="76.5" rx="11.3" ry="11.3"/>
  <path d="M1265.8,998.5h-269.7l104.7-92.4c12.4-11,13.6-29.9,2.6-42.3-11-12.4-29.9-13.6-42.3-2.6l-164.1,144.9c0,0-.1.1-.2.2-.2.2-.5.4-.7.6-.2.2-.3.3-.5.5-.2.2-.3.3-.5.5-.2.2-.4.5-.6.7,0,0-.1.1-.2.2,0,0-.1.1-.2.2-.2.3-.5.6-.7.8,0,.1-.2.2-.2.3-.2.3-.5.6-.7.9,0,.1-.2.2-.2.3-.2.3-.4.6-.6.9,0,.1-.2.3-.2.4-.2.3-.4.6-.5.9,0,.2-.2.3-.3.5-.1.3-.3.5-.4.8-.1.2-.2.4-.3.6-.1.2-.2.5-.3.7-.1.2-.2.5-.3.7,0,.2-.2.4-.2.6-.1.3-.2.5-.3.8,0,.2-.1.3-.2.5-.1.3-.2.6-.3.9,0,.2,0,.3-.1.5,0,.3-.2.6-.3.9,0,.1,0,.3-.1.4,0,.3-.2.6-.2,1,0,.1,0,.3,0,.4,0,.3-.1.6-.2,1,0,.2,0,.3,0,.5,0,.3,0,.6-.1.9,0,.2,0,.4,0,.5,0,.3,0,.6,0,.9,0,.2,0,.4,0,.6,0,.3,0,.5,0,.8,0,.2,0,.5,0,.7,0,.2,0,.5,0,.7,0,.3,0,.5,0,.8,0,.2,0,.4,0,.6,0,.3,0,.6,0,.9,0,.2,0,.4,0,.5,0,.3,0,.6.1.9,0,.2,0,.3,0,.5,0,.3.1.6.2,1,0,.1,0,.3,0,.4,0,.3.1.6.2,1,0,.1,0,.3.1.4,0,.3.2.6.3.9,0,.2,0,.3.1.5,0,.3.2.6.3.9,0,.2.1.3.2.5.1.3.2.5.3.8,0,.2.2.4.2.6.1.2.2.5.3.7.1.2.2.5.3.7,0,.2.2.4.3.6.1.3.3.5.4.8,0,.2.2.3.3.5.2.3.3.6.5.9,0,.1.2.3.2.4.2.3.4.6.6.9,0,.1.2.2.2.3.2.3.4.6.7.9,0,.1.2.2.2.3.2.3.5.6.7.8,0,0,.1.1.2.2,0,0,0,0,.1.2.2.3.5.5.7.8.1.2.3.3.4.5.2.2.4.4.6.6.2.2.4.4.6.6,0,0,0,0,0,0l164.1,144.9c5.7,5,12.8,7.5,19.8,7.5s16.6-3.4,22.5-10.1c11-12.4,9.8-31.4-2.6-42.3l-104.7-92.4h269.7c16.6,0,30-13.4,30-30s-13.4-30-30-30Z"/>
</svg>