<?xml version="1.0" encoding="UTF-8"?>
<svg id="Vrstva_1" xmlns="http://www.w3.org/2000/svg" version="1.1" viewBox="0 0 1728 1728">
  <!-- Generator: Adobe Illustrator 29.2.1, SVG Export Plug-In . SVG Version: 2.1.0 Build 116)  -->
  <defs>
    <style>
      .st0 {
        fill: #eb6739;
      }
    </style>
  </defs>
  <path d="M735.4,868.8l65-4.8c2.1,0,4.2.5,5.9,1.7l123.8,73c.4.3.8.6,1.2,1l97.3,79.3c7.1,6.7,117.5,107,107.8,105.4l-180.9-16.3c-2-.3-20.8-15.3-22.3-16.8l-204.6-205.6c-6.1-6.1-1.9-16.6,6.7-16.9Z"/>
  <g>
    <path d="M1340.6,1177.1l-212.2-220.2c-.9-1-2-1.9-3-2.8l-135.9-107c-.8-.7-1.7-1.2-2.6-1.8l-25.9,55.7,125.7,99,194.5,201.8-50.1,79.7-297.8,1.9c2.7-14,3.8-28.4,3.3-43.2-1.8-51.6-23.7-99.4-61.5-134.6-29.6-27.6-66.3-44.8-105.7-50.1l-91.7-207.5c0,0,0-.1,0-.2l-9.9-22.4,146.1-9.4,48.5,27.5-43.9-88-197.5,12.7c-9.8.6-18.6,6-23.7,14.4-5.1,8.4-5.8,18.7-1.8,27.7l4.3,9.7-158-29.1,5.9-56.7c1.7-16.5-10.3-31.2-26.7-32.9-16.5-1.7-31.2,10.3-32.9,26.7l-8.8,84.2c-1.6,15.6,9,29.8,24.4,32.6l225.6,41.6,75.7,171.1c-90.9,18.5-158,100.6-154.6,196.3,1.8,51.6,23.7,99.4,61.5,134.6,36.1,33.6,82.5,51.8,131.5,51.8s4.7,0,7.1-.1c69-2.5,128.3-41,160.5-96.7l337.1-2.1c10.2,0,19.7-5.4,25.2-14l71.4-113.5c7.3-11.7,5.8-26.9-3.8-36.8ZM748.1,1380.3c-35.5,1.3-69.5-11.4-95.6-35.7-26.1-24.3-41.1-57.2-42.4-92.8-2.6-73.5,55-135.3,128.5-138,1.6,0,3.2,0,4.9,0,33.8,0,65.9,12.6,90.7,35.7,26.1,24.3,41.1,57.2,42.4,92.8,2.6,73.5-55,135.3-128.5,138Z"/>
    <path class="st0" d="M927.2,1003.7c-11.4,0-21.8-6.4-26.8-16.6l-179.1-359.1c-19-34-29.1-72.6-29.1-111.7,0-61.1,23.8-118.6,67-161.8,43.2-43.2,100.7-67,161.8-67s118.6,23.8,161.8,67c43.2,43.2,67,100.7,67,161.8s-5.6,58.1-16.5,85.4c-.2.7-.5,1.3-.8,2-2.5,6-5.3,12-8.3,17.8l-169.7,364.8c-4.9,10.4-15.3,17.2-26.8,17.3-.1,0-.3,0-.4,0ZM920.9,347.6c-93.1,0-168.8,75.7-168.8,168.8s7.5,57.7,21.7,82.9c.3.4.5.9.7,1.4l151.7,304.1,143.7-309c.2-.4.4-.8.6-1.2,2.4-4.5,4.6-9.3,6.5-14,8.3-20.4,12.6-42,12.6-64,0-93.1-75.7-168.8-168.8-168.8Z"/>
  </g>
  <path class="st0" d="M920.9,629.6c-62.5,0-113.3-50.8-113.3-113.3s50.8-113.3,113.3-113.3,113.3,50.8,113.3,113.3-50.8,113.3-113.3,113.3ZM920.9,463.1c-29.4,0-53.3,23.9-53.3,53.3s23.9,53.3,53.3,53.3,53.3-23.9,53.3-53.3-23.9-53.3-53.3-53.3Z"/>
</svg>