<?xml version="1.0" encoding="UTF-8"?>
<svg id="Vrstva_1" xmlns="http://www.w3.org/2000/svg" version="1.1" viewBox="0 0 1728 1728">
  <!-- Generator: Adobe Illustrator 29.2.1, SVG Export Plug-In . SVG Version: 2.1.0 Build 116)  -->
  <defs>
    <style>
      .st0 {
        fill: #eb6739;
      }
    </style>
  </defs>
  <path class="st0" d="M1305.4,917.1c-12.1-11.3-31.1-10.6-42.4,1.6l-222.8,240.2-85.8-101.1c-10.7-12.6-29.7-14.2-42.3-3.5-12.6,10.7-14.2,29.7-3.5,42.3l107.7,126.9s0,0,.1.1c.2.3.5.6.7.8.1.1.3.3.4.4.2.2.4.4.6.6.2.2.4.4.6.6,0,0,0,0,0,0,0,0,.2.2.3.3.6.5,1.1,1,1.7,1.4,0,0,.2.1.2.2.3.2.5.4.8.6.2.1.3.2.5.3.2.2.5.3.7.5.2.1.4.3.6.4.2.1.4.3.6.4.2.1.5.3.7.4.2,0,.4.2.6.3.3.2.6.3.9.4.1,0,.3.1.4.2.4.2.9.4,1.3.5,0,0,0,0,0,0,1,.4,2,.7,3,1,0,0,.1,0,.2,0,.4.1.9.2,1.3.3.1,0,.2,0,.3,0,.4,0,.8.2,1.2.2.1,0,.3,0,.4,0,.4,0,.8.1,1.1.1.1,0,.3,0,.4,0,.4,0,.8,0,1.2,0,.1,0,.2,0,.4,0,.5,0,1,0,1.5,0s0,0,0,0c0,0,0,0,0,0,.5,0,1,0,1.4,0,0,0,.2,0,.2,0,.4,0,.8,0,1.2,0,.1,0,.2,0,.3,0,.4,0,.8,0,1.1-.1.1,0,.2,0,.3,0,.4,0,.8-.1,1.2-.2,0,0,.2,0,.2,0,.4,0,.9-.2,1.3-.3,0,0,0,0,0,0,1-.2,1.9-.5,2.8-.9,0,0,.2,0,.2,0,.4-.1.7-.3,1.1-.4.2,0,.3-.1.5-.2.3-.1.5-.2.8-.4.2,0,.4-.2.6-.3.2-.1.5-.2.7-.4.2-.1.4-.2.6-.3.2-.1.4-.2.6-.3.2-.1.5-.3.7-.4.1,0,.3-.2.4-.3.9-.6,1.7-1.2,2.6-1.9.1-.1.3-.2.4-.3,0,0,0,0,0,0,.2-.2.4-.4.7-.6.2-.2.4-.3.6-.5.1-.1.3-.3.4-.4.2-.2.5-.5.7-.7,0,0,0,0,.1-.1l245.8-265c11.3-12.1,10.6-31.1-1.6-42.4Z"/>
  <rect x="587.9" y="818.3" width="76.5" height="76.5" rx="11.3" ry="11.3"/>
  <path d="M1171.7,493.9H488.4c-41.6,0-75.4,33.7-75.4,75.4v515.3c0,41.6,33.7,75.4,75.4,75.4h305.6c6.3,0,11.3-5.1,11.3-11.3v-37.3c0-6.3-5.1-11.3-11.3-11.3h-305.6c-8.5,0-15.4-6.9-15.4-15.4v-446.4h714.1v127.5c0,6.3,5.1,11.3,11.3,11.3h37.3c6.3,0,11.3-5.1,11.3-11.3v-196.5c0-41.6-33.7-75.4-75.4-75.4Z"/>
  <rect x="722.3" y="818.3" width="76.5" height="76.5" rx="11.3" ry="11.3"/>
  <rect x="858.9" y="818.3" width="76.5" height="76.5" rx="11.3" ry="11.3"/>
  <rect x="985.3" y="691.6" width="76.5" height="76.5" rx="11.3" ry="11.3"/>
  <rect x="858.9" y="691.6" width="76.5" height="76.5" rx="11.3" ry="11.3"/>
  <rect x="722.3" y="691.6" width="76.5" height="76.5" rx="11.3" ry="11.3"/>
  <rect x="722.3" y="944.9" width="76.5" height="76.5" rx="11.3" ry="11.3"/>
  <rect x="587.9" y="944.9" width="76.5" height="76.5" rx="11.3" ry="11.3"/>
</svg>