<?xml version="1.0" encoding="UTF-8"?>
<svg id="Vrstva_1" xmlns="http://www.w3.org/2000/svg" version="1.1" viewBox="0 0 1728 1728">
  <!-- Generator: Adobe Illustrator 29.2.1, SVG Export Plug-In . SVG Version: 2.1.0 Build 116)  -->
  <defs>
    <style>
      .st0 {
        fill: #eb6739;
      }
    </style>
  </defs>
  <path class="st0" d="M673.6,480.8c-12-11.4-31-10.9-42.4,1.1l-140.4,147.6-53.5-56.9c-11.4-12.1-30.3-12.6-42.4-1.3-12.1,11.4-12.6,30.3-1.3,42.4l75.3,80s0,0,0,0c.2.2.4.4.6.6.2.2.3.3.5.5,0,0,0,0,0,0,0,0,.1.1.2.2.6.6,1.2,1.1,1.8,1.6,0,0,.1.1.2.2.3.2.5.4.8.6.1.1.3.2.4.3.2.2.5.3.7.5.2.1.4.2.5.3.2.1.5.3.7.4.2.1.4.2.6.4.2.1.4.2.6.3.2.1.5.2.7.4.2,0,.4.2.6.3.3.1.5.2.8.3.2,0,.4.2.6.2.3.1.5.2.8.3.2,0,.4.1.5.2.3.1.6.2.9.3.2,0,.3.1.5.2.3,0,.6.2.9.3.2,0,.3,0,.5.1.3,0,.6.1.9.2.2,0,.3,0,.5.1.3,0,.7.1,1,.2.2,0,.3,0,.5,0,.3,0,.7,0,1,.1.1,0,.3,0,.4,0,.4,0,.8,0,1.1,0,.1,0,.2,0,.3,0,.5,0,1,0,1.5,0s0,0,0,0,0,0,0,0c.5,0,1,0,1.4,0,.1,0,.2,0,.3,0,.4,0,.7,0,1.1,0,.1,0,.3,0,.4,0,.3,0,.7,0,1-.1.1,0,.3,0,.4,0,.3,0,.7-.1,1-.2.2,0,.3,0,.5,0,.3,0,.6-.1,1-.2.2,0,.3,0,.5-.1.3,0,.6-.2.9-.3.2,0,.3-.1.5-.2.3,0,.6-.2.9-.3.2,0,.3-.1.5-.2.3-.1.6-.2.8-.3.2,0,.4-.1.5-.2.3-.1.5-.2.8-.4.2,0,.4-.2.6-.3.2-.1.5-.2.7-.4.2-.1.4-.2.6-.3.2-.1.4-.3.7-.4.2-.1.4-.2.6-.4.2-.1.4-.3.6-.4.2-.1.4-.3.7-.4.2-.1.3-.2.5-.4.2-.2.5-.3.7-.5.1-.1.3-.2.4-.3.4-.3.8-.7,1.2-1,.2-.2.4-.4.6-.6,0,0,0,0,0,0,.1-.1.3-.3.4-.4.2-.2.5-.5.7-.7,0,0,0,0,0,0l162.2-170.6c11.4-12,10.9-31-1.1-42.4Z"/>
  <path d="M1517.5,969c-3.4-22.8-13.2-43.8-27.5-59.1-16.6-17.7-39-27.4-63.1-27.4s-21.9,2-31.9,5.8c-6.3-44-44.3-78-90-78s-32.5,4.6-46,12.5c-17.3-25.5-47.9-42.5-82.6-42.5s-26.1,2.5-37.7,7v-38.7h51.7c96.8,0,175.6-78.8,175.6-175.6s-78.8-175.6-175.6-175.6h-407.5c-11.4-17.1-24.6-33.1-39.5-48-59.7-59.7-139.1-92.6-223.5-92.6s-163.8,32.9-223.5,92.6c-59.7,59.7-92.6,139.1-92.6,223.5s32.9,163.8,92.6,223.5c59.7,59.7,139.1,92.6,223.5,92.6s163.8-32.9,223.5-92.6c14.9-14.9,28-30.9,39.5-48h174v247.4c-7.2-.5-15.6-.5-24.7.7-24.7,3.3-59,16.1-82.3,57.8-37.1,66.3-50.1,117-13.3,194.9,14.6,30.8,51.5,76.4,109.7,135.5,42.2,42.9,79.8,76.9,81.4,78.3,5.7,5.2,12.9,7.7,20.1,7.7,8.2,0,16.4-3.3,22.3-9.9,11.1-12.3,10.1-31.3-2.2-42.4-41.1-37.1-153.1-144.5-177.1-195-26-54.9-19.6-84.4,11.4-139.9,8.8-15.8,20.7-24.8,36.2-27.4,7.3-1.2,13.9-.8,18.4-.2v74.1c0,16.6,13.4,30,30,30s30-13.4,30-30v-491.8c0-17.1,13.9-30.9,30.9-30.9s30.9,13.9,30.9,30.9v365.1c0,16.6,13.4,30,30,30s30-13.4,30-30v-132.5c0-17.1,16.9-30.9,37.7-30.9s37.7,13.9,37.7,30.9v132.5c0,16.6,13.4,30,30,30s30-13.4,30-30v-102.5c0-17.1,13.9-30.9,30.9-30.9s30.9,13.9,30.9,30.9v113.4c0,16.6,13.4,30,30,30s30-13.4,30-30v-41.2c0-17.1,13.9-30.9,30.9-30.9s28.8,19,31.3,35.3c15.5,104.6-1.2,215.3-18,289.8-18.4,81.7-40.9,138.9-41.1,139.4-6.1,15.4,1.4,32.8,16.8,39,3.6,1.4,7.4,2.1,11.1,2.1,11.9,0,23.2-7.2,27.9-18.9,1-2.5,24.2-61.3,43.6-147.3,11.4-50.5,19.2-100,23.1-147.1,4.9-59.4,3.5-115.2-4-165.8ZM519.8,829.2c-141.2,0-256.1-114.9-256.1-256.1s114.9-256.1,256.1-256.1,256.1,114.9,256.1,256.1-114.9,256.1-256.1,256.1ZM1047.8,547.7c-50.1,0-90.9,40.8-90.9,90.9v50h-142.6c14.2-36.3,21.7-75.4,21.7-115.6s-7.5-79.2-21.7-115.6h376.1c63.7,0,115.6,51.8,115.6,115.6s-51.8,115.6-115.6,115.6h-51.7v-50c0-50.1-40.8-90.9-90.9-90.9Z"/>
</svg>