<svg width="57" height="15" viewBox="0 0 57 15" fill="none" xmlns="http://www.w3.org/2000/svg">
<path d="M5.17578 9.52832V10.5H1.60645V9.52832H5.17578ZM1.94824 3.39062V10.5H0.722656V3.39062H1.94824ZM5.78125 7.91699V7.80469C5.78125 7.42383 5.83659 7.07064 5.94727 6.74512C6.05794 6.41634 6.21745 6.13151 6.42578 5.89062C6.63737 5.64648 6.89453 5.45768 7.19727 5.32422C7.50326 5.1875 7.84831 5.11914 8.23242 5.11914C8.61979 5.11914 8.96484 5.1875 9.26758 5.32422C9.57357 5.45768 9.83236 5.64648 10.0439 5.89062C10.2555 6.13151 10.4167 6.41634 10.5273 6.74512C10.638 7.07064 10.6934 7.42383 10.6934 7.80469V7.91699C10.6934 8.29785 10.638 8.65104 10.5273 8.97656C10.4167 9.30208 10.2555 9.58691 10.0439 9.83105C9.83236 10.0719 9.5752 10.2607 9.27246 10.3975C8.96973 10.5309 8.6263 10.5977 8.24219 10.5977C7.85482 10.5977 7.50814 10.5309 7.20215 10.3975C6.89941 10.2607 6.64225 10.0719 6.43066 9.83105C6.21908 9.58691 6.05794 9.30208 5.94727 8.97656C5.83659 8.65104 5.78125 8.29785 5.78125 7.91699ZM6.95801 7.80469V7.91699C6.95801 8.15462 6.98242 8.37923 7.03125 8.59082C7.08008 8.80241 7.15658 8.98796 7.26074 9.14746C7.36491 9.30697 7.49837 9.43229 7.66113 9.52344C7.82389 9.61458 8.01758 9.66016 8.24219 9.66016C8.46029 9.66016 8.64909 9.61458 8.80859 9.52344C8.97135 9.43229 9.10482 9.30697 9.20898 9.14746C9.31315 8.98796 9.38965 8.80241 9.43848 8.59082C9.49056 8.37923 9.5166 8.15462 9.5166 7.91699V7.80469C9.5166 7.57031 9.49056 7.34896 9.43848 7.14062C9.38965 6.92904 9.31152 6.74186 9.2041 6.5791C9.09993 6.41634 8.96647 6.28939 8.80371 6.19824C8.64421 6.10384 8.45378 6.05664 8.23242 6.05664C8.01107 6.05664 7.81901 6.10384 7.65625 6.19824C7.49674 6.28939 7.36491 6.41634 7.26074 6.5791C7.15658 6.74186 7.08008 6.92904 7.03125 7.14062C6.98242 7.34896 6.95801 7.57031 6.95801 7.80469ZM15.0635 5.2168H16.1328V10.3535C16.1328 10.8288 16.0319 11.2324 15.8301 11.5645C15.6283 11.8965 15.3467 12.1488 14.9854 12.3213C14.624 12.4971 14.2057 12.585 13.7305 12.585C13.5286 12.585 13.304 12.5557 13.0566 12.4971C12.8125 12.4385 12.5749 12.3441 12.3438 12.2139C12.1159 12.0869 11.9255 11.9193 11.7725 11.7109L12.3242 11.0176C12.513 11.2422 12.7214 11.4066 12.9492 11.5107C13.1771 11.6149 13.4163 11.667 13.667 11.667C13.9372 11.667 14.1667 11.6165 14.3555 11.5156C14.5475 11.418 14.6956 11.2731 14.7998 11.0811C14.904 10.889 14.9561 10.6546 14.9561 10.3779V6.41309L15.0635 5.2168ZM11.4746 7.91699V7.81445C11.4746 7.41406 11.5234 7.04948 11.6211 6.7207C11.7188 6.38867 11.8587 6.10384 12.041 5.86621C12.2233 5.62533 12.4447 5.44141 12.7051 5.31445C12.9655 5.18424 13.2601 5.11914 13.5889 5.11914C13.9307 5.11914 14.222 5.18099 14.4629 5.30469C14.707 5.42839 14.9105 5.60579 15.0732 5.83691C15.236 6.06478 15.363 6.33822 15.4541 6.65723C15.5485 6.97298 15.6185 7.32454 15.6641 7.71191V8.03906C15.6217 8.41667 15.5501 8.76172 15.4492 9.07422C15.3483 9.38672 15.2148 9.6569 15.0488 9.88477C14.8828 10.1126 14.6777 10.2884 14.4336 10.4121C14.1927 10.5358 13.9079 10.5977 13.5791 10.5977C13.2568 10.5977 12.9655 10.5309 12.7051 10.3975C12.4479 10.264 12.2266 10.0768 12.041 9.83594C11.8587 9.59505 11.7188 9.31185 11.6211 8.98633C11.5234 8.65755 11.4746 8.30111 11.4746 7.91699ZM12.6514 7.81445V7.91699C12.6514 8.15788 12.6742 8.38249 12.7197 8.59082C12.7686 8.79915 12.8418 8.98307 12.9395 9.14258C13.0404 9.29883 13.1673 9.42253 13.3203 9.51367C13.4766 9.60156 13.6605 9.64551 13.8721 9.64551C14.1488 9.64551 14.375 9.58691 14.5508 9.46973C14.7298 9.35254 14.8665 9.19466 14.9609 8.99609C15.0586 8.79427 15.127 8.56966 15.166 8.32227V7.43848C15.1465 7.24642 15.1058 7.06738 15.0439 6.90137C14.9854 6.73535 14.9056 6.59049 14.8047 6.4668C14.7038 6.33984 14.5768 6.24219 14.4238 6.17383C14.2708 6.10221 14.0902 6.06641 13.8818 6.06641C13.6702 6.06641 13.4863 6.11198 13.3301 6.20312C13.1738 6.29427 13.0452 6.4196 12.9443 6.5791C12.8467 6.73861 12.7734 6.92415 12.7246 7.13574C12.6758 7.34733 12.6514 7.57357 12.6514 7.81445ZM17.1289 7.91699V7.80469C17.1289 7.42383 17.1842 7.07064 17.2949 6.74512C17.4056 6.41634 17.5651 6.13151 17.7734 5.89062C17.985 5.64648 18.2422 5.45768 18.5449 5.32422C18.8509 5.1875 19.196 5.11914 19.5801 5.11914C19.9674 5.11914 20.3125 5.1875 20.6152 5.32422C20.9212 5.45768 21.18 5.64648 21.3916 5.89062C21.6032 6.13151 21.7643 6.41634 21.875 6.74512C21.9857 7.07064 22.041 7.42383 22.041 7.80469V7.91699C22.041 8.29785 21.9857 8.65104 21.875 8.97656C21.7643 9.30208 21.6032 9.58691 21.3916 9.83105C21.18 10.0719 20.9229 10.2607 20.6201 10.3975C20.3174 10.5309 19.974 10.5977 19.5898 10.5977C19.2025 10.5977 18.8558 10.5309 18.5498 10.3975C18.2471 10.2607 17.9899 10.0719 17.7783 9.83105C17.5667 9.58691 17.4056 9.30208 17.2949 8.97656C17.1842 8.65104 17.1289 8.29785 17.1289 7.91699ZM18.3057 7.80469V7.91699C18.3057 8.15462 18.3301 8.37923 18.3789 8.59082C18.4277 8.80241 18.5042 8.98796 18.6084 9.14746C18.7126 9.30697 18.846 9.43229 19.0088 9.52344C19.1715 9.61458 19.3652 9.66016 19.5898 9.66016C19.8079 9.66016 19.9967 9.61458 20.1562 9.52344C20.319 9.43229 20.4525 9.30697 20.5566 9.14746C20.6608 8.98796 20.7373 8.80241 20.7861 8.59082C20.8382 8.37923 20.8643 8.15462 20.8643 7.91699V7.80469C20.8643 7.57031 20.8382 7.34896 20.7861 7.14062C20.7373 6.92904 20.6592 6.74186 20.5518 6.5791C20.4476 6.41634 20.3141 6.28939 20.1514 6.19824C19.9919 6.10384 19.8014 6.05664 19.5801 6.05664C19.3587 6.05664 19.1667 6.10384 19.0039 6.19824C18.8444 6.28939 18.7126 6.41634 18.6084 6.5791C18.5042 6.74186 18.4277 6.92904 18.3789 7.14062C18.3301 7.34896 18.3057 7.57031 18.3057 7.80469ZM28.8428 9.15234C28.8428 9.00911 28.807 8.86751 28.7354 8.72754C28.6637 8.58757 28.5254 8.45898 28.3203 8.3418C28.1185 8.22461 27.8206 8.12533 27.4268 8.04395C27.1338 7.97884 26.8717 7.9056 26.6406 7.82422C26.4128 7.74284 26.2207 7.64518 26.0645 7.53125C25.9082 7.41732 25.7894 7.2806 25.708 7.12109C25.6266 6.96159 25.5859 6.77279 25.5859 6.55469C25.5859 6.35938 25.6283 6.17546 25.7129 6.00293C25.8008 5.82715 25.9245 5.67415 26.084 5.54395C26.2467 5.41048 26.4421 5.30632 26.6699 5.23145C26.901 5.15658 27.1598 5.11914 27.4463 5.11914C27.8532 5.11914 28.2015 5.18913 28.4912 5.3291C28.7842 5.46582 29.0072 5.65299 29.1602 5.89062C29.3164 6.12826 29.3945 6.39681 29.3945 6.69629H28.8135C28.8135 6.514 28.7598 6.34147 28.6523 6.17871C28.5482 6.01595 28.3936 5.88249 28.1885 5.77832C27.9867 5.67415 27.7393 5.62207 27.4463 5.62207C27.1436 5.62207 26.8978 5.66764 26.709 5.75879C26.5202 5.84993 26.3818 5.96549 26.2939 6.10547C26.2093 6.24544 26.167 6.3903 26.167 6.54004C26.167 6.65723 26.1849 6.76465 26.2207 6.8623C26.2598 6.95671 26.3281 7.0446 26.4258 7.12598C26.5267 7.20736 26.6699 7.28385 26.8555 7.35547C27.041 7.42708 27.2819 7.49707 27.5781 7.56543C28.0046 7.65983 28.3529 7.77539 28.623 7.91211C28.8965 8.04557 29.0983 8.21159 29.2285 8.41016C29.3587 8.60547 29.4238 8.8431 29.4238 9.12305C29.4238 9.34115 29.3783 9.54134 29.2871 9.72363C29.196 9.90267 29.0641 10.0573 28.8916 10.1875C28.7223 10.3177 28.5173 10.4186 28.2764 10.4902C28.0387 10.5618 27.7718 10.5977 27.4756 10.5977C27.0296 10.5977 26.652 10.5244 26.3428 10.3779C26.0368 10.2282 25.804 10.0329 25.6445 9.79199C25.4883 9.54785 25.4102 9.28906 25.4102 9.01562H25.9912C26.0107 9.28906 26.097 9.50553 26.25 9.66504C26.403 9.82129 26.5902 9.93197 26.8115 9.99707C27.0361 10.0622 27.2575 10.0947 27.4756 10.0947C27.7751 10.0947 28.0257 10.0508 28.2275 9.96289C28.4294 9.875 28.5824 9.75944 28.6865 9.61621C28.7907 9.47298 28.8428 9.31836 28.8428 9.15234ZM32.7441 5.2168V5.69531H30.0977V5.2168H32.7441ZM31.0693 3.85938H31.6504V9.21582C31.6504 9.45996 31.6829 9.64388 31.748 9.76758C31.8132 9.89128 31.8978 9.97428 32.002 10.0166C32.1061 10.0589 32.2184 10.0801 32.3389 10.0801C32.4268 10.0801 32.5114 10.0752 32.5928 10.0654C32.6742 10.0524 32.7474 10.0394 32.8125 10.0264L32.8369 10.5195C32.7653 10.5423 32.6725 10.5602 32.5586 10.5732C32.4447 10.5895 32.3307 10.5977 32.2168 10.5977C31.9922 10.5977 31.7936 10.557 31.6211 10.4756C31.4486 10.391 31.3135 10.2477 31.2158 10.0459C31.1182 9.84082 31.0693 9.5625 31.0693 9.21094V3.85938ZM34.5508 6.09082V10.5H33.9697V5.2168H34.5361L34.5508 6.09082ZM36.4209 5.17773L36.4062 5.71484C36.3411 5.70508 36.2777 5.69694 36.2158 5.69043C36.154 5.68392 36.0872 5.68066 36.0156 5.68066C35.7617 5.68066 35.5387 5.72786 35.3467 5.82227C35.1579 5.91341 34.9984 6.04199 34.8682 6.20801C34.738 6.37077 34.6387 6.56283 34.5703 6.78418C34.502 7.00228 34.4629 7.23665 34.4531 7.4873L34.2383 7.57031C34.2383 7.22526 34.2741 6.90462 34.3457 6.6084C34.4173 6.31217 34.5264 6.05339 34.6729 5.83203C34.8226 5.60742 35.0098 5.43327 35.2344 5.30957C35.4622 5.18262 35.7292 5.11914 36.0352 5.11914C36.11 5.11914 36.1833 5.12565 36.2549 5.13867C36.3298 5.14844 36.3851 5.16146 36.4209 5.17773ZM40.3564 9.55273V6.82812C40.3564 6.57747 40.3044 6.361 40.2002 6.17871C40.096 5.99642 39.943 5.85645 39.7412 5.75879C39.5394 5.66113 39.2904 5.6123 38.9941 5.6123C38.7207 5.6123 38.4766 5.66113 38.2617 5.75879C38.0501 5.85319 37.8825 5.98177 37.7588 6.14453C37.6383 6.30404 37.5781 6.48145 37.5781 6.67676L36.9922 6.67188C36.9922 6.47331 37.041 6.28125 37.1387 6.0957C37.2363 5.91016 37.3747 5.74414 37.5537 5.59766C37.7327 5.45117 37.946 5.33561 38.1934 5.25098C38.444 5.16309 38.7191 5.11914 39.0186 5.11914C39.3962 5.11914 39.7282 5.18262 40.0146 5.30957C40.3044 5.43652 40.5306 5.62695 40.6934 5.88086C40.8561 6.13477 40.9375 6.45378 40.9375 6.83789V9.3916C40.9375 9.57389 40.9505 9.7627 40.9766 9.95801C41.0059 10.1533 41.0465 10.3145 41.0986 10.4414V10.5H40.4785C40.4395 10.3828 40.4085 10.2363 40.3857 10.0605C40.3662 9.88151 40.3564 9.71224 40.3564 9.55273ZM40.4932 7.42383L40.5029 7.87305H39.3555C39.056 7.87305 38.7874 7.90072 38.5498 7.95605C38.3154 8.00814 38.1169 8.08626 37.9541 8.19043C37.7913 8.29134 37.666 8.41341 37.5781 8.55664C37.4935 8.69987 37.4512 8.86263 37.4512 9.04492C37.4512 9.23372 37.4984 9.40625 37.5928 9.5625C37.6904 9.71875 37.8271 9.84408 38.0029 9.93848C38.182 10.0296 38.3936 10.0752 38.6377 10.0752C38.9632 10.0752 39.2497 10.015 39.4971 9.89453C39.7477 9.77409 39.9544 9.61621 40.1172 9.4209C40.2799 9.22559 40.389 9.01237 40.4443 8.78125L40.6982 9.11816C40.6559 9.28092 40.5778 9.44857 40.4639 9.62109C40.3532 9.79036 40.2083 9.94987 40.0293 10.0996C39.8503 10.2461 39.6387 10.3665 39.3945 10.4609C39.1536 10.5521 38.8802 10.5977 38.5742 10.5977C38.2292 10.5977 37.9281 10.5326 37.6709 10.4023C37.417 10.2721 37.2184 10.0947 37.0752 9.87012C36.9352 9.64225 36.8652 9.38509 36.8652 9.09863C36.8652 8.83822 36.9206 8.60547 37.0312 8.40039C37.1419 8.19206 37.3014 8.01628 37.5098 7.87305C37.7214 7.72656 37.9753 7.61589 38.2715 7.54102C38.571 7.46289 38.9062 7.42383 39.2773 7.42383H40.4932ZM38.8623 4.37207L39.7949 3.00488H40.498L39.3701 4.37207H38.8623ZM43.0859 6.34473V10.5H42.5049V5.2168H43.0615L43.0859 6.34473ZM42.9541 7.53125L42.6953 7.38477C42.7148 7.07227 42.7783 6.7793 42.8857 6.50586C42.9932 6.23242 43.138 5.99154 43.3203 5.7832C43.5059 5.57487 43.7223 5.41211 43.9697 5.29492C44.2204 5.17773 44.4971 5.11914 44.7998 5.11914C45.0635 5.11914 45.2995 5.15495 45.5078 5.22656C45.7161 5.29818 45.8936 5.41211 46.04 5.56836C46.1865 5.72461 46.2972 5.9248 46.3721 6.16895C46.4502 6.41309 46.4893 6.71094 46.4893 7.0625V10.5H45.9033V7.05762C45.9033 6.69303 45.8529 6.4082 45.752 6.20312C45.651 5.99479 45.5078 5.84668 45.3223 5.75879C45.1367 5.6709 44.917 5.62695 44.6631 5.62695C44.3831 5.62695 44.1374 5.6888 43.9258 5.8125C43.7174 5.93294 43.5417 6.09082 43.3984 6.28613C43.2585 6.47819 43.151 6.6849 43.0762 6.90625C43.0013 7.12435 42.9606 7.33268 42.9541 7.53125ZM48.584 3V10.5H48.0029V3H48.584ZM51.8994 5.2168L49.4287 7.66797L48.3789 8.68359L48.291 8.1123L49.1357 7.19922L51.1621 5.2168H51.8994ZM51.3916 10.5L49.1846 7.75586L49.5068 7.25293L52.0947 10.5H51.3916ZM54.4727 9.97266L56.1182 5.2168H56.748L54.5117 11.3496C54.4661 11.4701 54.4076 11.6035 54.3359 11.75C54.2676 11.8965 54.1764 12.0365 54.0625 12.1699C53.9518 12.3066 53.8118 12.4173 53.6426 12.502C53.4766 12.5898 53.2731 12.6338 53.0322 12.6338C52.9704 12.6338 52.8906 12.6257 52.793 12.6094C52.6986 12.5964 52.6302 12.5833 52.5879 12.5703L52.583 12.0771C52.6188 12.0869 52.6709 12.0951 52.7393 12.1016C52.8076 12.1081 52.8548 12.1113 52.8809 12.1113C53.0924 12.1113 53.2699 12.0755 53.4131 12.0039C53.5596 11.9323 53.6816 11.8249 53.7793 11.6816C53.877 11.5417 53.9632 11.3659 54.0381 11.1543L54.4727 9.97266ZM52.9346 5.2168L54.6191 9.75293L54.7754 10.3633L54.3506 10.6025L52.2998 5.2168H52.9346Z" fill="black"/>
</svg>
